<svg enable-background="new 0 0 60 60" viewBox="0 0 60 60" xmlns="http://www.w3.org/2000/svg"><path d="m60 0h-60v60h60z"></path><path d="m13.6 8.1h-1.9v7.3c0 1.2-.3 2.1-1.4 2.1-.7 0-1.2-.4-1.4-1.2l-1.8.5c.4 1.4 1.4 2.4 3.2 2.4 2.7 0 3.3-2.2 3.3-3.8zm8.7 3.5h-1.8v4c0 1-.6 2-1.7 2-1.2 0-1.4-1.1-1.4-2v-4.1h-1.8v4.6c0 1.5.8 3 2.7 3 1.1 0 2-.7 2.3-1.4v1.2h1.7zm7.4.9c-.6-.7-1.7-1.1-2.8-1.1-1.5 0-2.9.7-2.9 2.3 0 1.4 1.1 1.8 2.2 2.1s1.7.4 1.7 1.1-.6.9-1.2.9c-.8 0-1.5-.4-1.9-.9l-1.2 1.1c.7.8 1.9 1.2 3 1.2 1.6 0 3.1-.7 3.1-2.4 0-1.4-1.3-1.9-2.4-2.2-1-.2-1.6-.4-1.6-1s.6-.8 1.2-.8c.7 0 1.3.4 1.6.8zm2 .6v3.4c0 1.4.4 2.6 2.4 2.6.4 0 .9-.1 1.2-.2l-.1-1.4c-.2.1-.5.2-.8.2-.8 0-1-.5-1-1.1v-3.4h1.8v-1.5h-1.8v-2.2h-1.8v2.1h-1.3v1.5zm-23.4 22.2h3.9c2.1 0 4.1-.8 4.1-3.2 0-1.5-1-2.4-2.3-2.6 1.1-.3 1.9-1.1 1.9-2.4 0-2-1.7-2.7-3.3-2.7h-4.3zm1.9-9.2h1.5c1.5 0 2.1.4 2.1 1.3s-.7 1.5-2 1.5h-1.7v-2.8zm0 4.4h1.8c1.6 0 2.3.4 2.3 1.5 0 1.4-1.4 1.6-2.4 1.6h-1.7zm9.3.4c.1-1 1-1.8 2-1.8 1.2 0 1.7.8 1.7 1.8zm5.7.8c0-2.6-1.5-4-3.6-4-2.2 0-3.9 1.6-3.9 3.9 0 2.4 1.7 3.8 4 3.8 1.4 0 2.4-.5 3.2-1.5l-1.2-1c-.4.6-1 .9-1.9.9-1.1 0-2-.8-2.1-1.8h5.6c-.1 0-.1-.1-.1-.3zm-16.9 20.2h1.9v-8.4l5.1 8.4h2.5v-10.9h-1.9v8.1l-5-8.1h-2.6zm11.9 0h1.8v-7.3h-1.8zm-.3-9.9c0 .6.5 1.1 1.2 1.1s1.2-.5 1.2-1.1-.5-1.1-1.2-1.1-1.2.5-1.2 1.1zm10.7 3.5c-.6-.7-1.7-1.1-2.8-1.1-2.2 0-3.9 1.5-3.9 3.9s1.8 3.9 4 3.9c1.1 0 2.1-.4 2.7-1l-1.1-1.2c-.4.4-1 .7-1.5.7-1.4 0-2.1-1.2-2.1-2.4 0-1.1.7-2.4 2-2.4.6 0 1.2.3 1.5.7zm2.6 2c.1-1 1-1.8 2-1.8 1.2 0 1.7.8 1.7 1.8zm5.6.8c0-2.6-1.5-4-3.6-4-2.2 0-3.9 1.6-3.9 3.9 0 2.4 1.7 3.8 4 3.8 1.4 0 2.4-.5 3.2-1.5l-1.2-1c-.4.6-1 .9-1.9.9-1.1 0-2-.8-2.1-1.8h5.6c-.1 0-.1-.2-.1-.3z" fill="#fff"></path></svg>
