<svg xmlns="http://www.w3.org/2000/svg" height="36" viewBox="0 0 24 24" width="36"><circle class="wrs-smile__bg" cx="12" cy="12" fill="white" r="11"></circle> <path class="wrs-smile__mouse" d="M5.15718644,15.3522172 C7.2314143,21.7673549 18.5220567,22.0453442 18.8428136,13" fill-rule="nonzero"></path> <path class="wrs-smile__eye" d="M11.8863529 13.9075826L8.29023529 13.9075826 7.89 13.4178435 8.74517647 9.56636522C7.63482353 10.0091478 6.31623529 9.77436522 5.43847059 8.90966957L6.08152941 8.27558261C6.82729412 9.00984348 8.02482353 9.0968 8.86764706 8.47801739L9.12035294 8.29227826 9.85588235 8.75732174 8.91176471 13.0112348 11.8863529 13.0112348 11.8863529 13.9075826zM16.1788588 9.4154087C15.3649765 9.4154087 14.5994471 9.10271304 14.0238 8.53506087L14.6672118 7.90097391C15.0709765 8.29923478 15.6081529 8.51871304 16.1788588 8.51871304 16.7492118 8.51871304 17.2863882 8.29923478 17.6905059 7.90097391L18.3339176 8.53506087C17.7579176 9.10271304 16.9923882 9.4154087 16.1788588 9.4154087"></path></svg>
