<svg width="633" height="168" viewBox="0 0 633 168" fill="none" xmlns="http://www.w3.org/2000/svg">
<path d="M0 16.5212V165.522H47.8082C89.834 165.522 111.312 139.914 111.312 89.9373C111.312 41.716 89.5243 16.5212 47.8082 16.5212H0ZM29.3251 41.8193H43.7812C69.1825 41.8193 81.3669 57.6177 81.3669 90.4536C81.3669 124.735 69.5956 140.224 43.7812 140.224H29.3251V41.8193Z" fill="#433833"/>
<path d="M159.739 31.3903C168 31.3903 174.918 24.2655 174.918 15.6951C174.918 7.12477 168 0 159.739 0C151.479 0 144.561 7.12477 144.561 15.6951C144.561 24.2655 151.479 31.3903 159.739 31.3903ZM207.341 31.3903C215.602 31.3903 222.623 24.2655 222.623 15.6951C222.623 7.12477 215.602 0 207.341 0C199.184 0 192.162 7.12477 192.162 15.6951C192.162 24.2655 199.184 31.3903 207.341 31.3903ZM234.291 51.6288H206.102V117.507C206.102 133.202 196.706 143.218 182.25 143.218C167.897 143.218 161.185 135.267 161.185 118.54V51.6288H132.892V125.355C132.892 153.131 146.109 168 170.891 168C187.309 168 199.597 160.152 205.173 146.419H206.928V165.522H234.291V51.6288Z" fill="#433833"/>
<path d="M312.147 115.029C312.147 90.5569 325.261 78.3725 352.108 78.3725C358.51 78.3725 365.945 79.7148 371.108 81.6767V51.0092C367.081 49.4604 361.298 48.6343 354.896 48.6343C333.419 48.6343 321.75 58.2372 316.794 80.8506H312.354V51.6288H261.345V72.4868H285.094V144.767H263.41V165.522H345.19V144.767H312.147V115.029Z" fill="#433833"/>
<path d="M469.718 133.512C467.653 140.947 458.67 146.109 447.312 146.109C432.546 146.109 422.943 136.403 422.943 121.534V115.339H496.359V99.6435C496.359 69.0793 477.05 49.2538 446.899 49.2538C415.921 49.2538 395.27 68.976 395.27 98.8175V117.094C395.27 149.414 414.269 168 447.415 168C473.849 168 493.984 153.647 496.359 133.512H469.718ZM446.382 71.1444C460.632 71.1444 469.099 80.9539 469.099 97.2686H422.943C422.943 80.9539 431.72 71.1444 446.382 71.1444Z" fill="#433833"/>
<path d="M573.596 115.029C573.596 90.5569 586.709 78.3725 613.556 78.3725C619.958 78.3725 627.393 79.7148 632.556 81.6767V51.0092C628.529 49.4604 622.746 48.6343 616.344 48.6343C594.867 48.6343 583.198 58.2372 578.242 80.8506H573.802V51.6288H522.793V72.4868H546.542V144.767H524.858V165.522H606.638V144.767H573.596V115.029Z" fill="#433833"/>
</svg>
